<svg width="28" height="28" viewBox="0 0 28 28" fill="none" xmlns="http://www.w3.org/2000/svg">
<path d="M16.2049 3.36004L10.7332 2.49671C6.17158 1.78504 4.05991 3.32504 3.33658 7.88671L2.47324 13.3584C2.00658 16.345 2.49658 18.2817 4.18824 19.46C5.07491 20.09 6.28824 20.51 7.86324 20.755L13.3349 21.6184C17.8966 22.33 20.0082 20.79 20.7316 16.2284L21.5832 10.7567C21.7232 9.85838 21.7816 9.05338 21.7349 8.34171C21.5832 5.42504 19.8682 3.93171 16.2049 3.36004ZM9.61324 10.9084C8.24824 10.9084 7.13991 9.80004 7.13991 8.44671C7.13991 7.08171 8.24824 5.97338 9.61324 5.97338C10.9666 5.97338 12.0749 7.08171 12.0749 8.44671C12.0749 9.80004 10.9666 10.9084 9.61324 10.9084Z" fill="#8B5CF6"/>
<path d="M23.9166 15.715L22.1666 20.9767C20.7083 25.3634 18.3749 26.53 13.9882 25.0717L8.72658 23.3217C7.08158 22.7734 5.89158 22.0967 5.12158 21.245C5.85658 21.5367 6.70825 21.7584 7.67658 21.91L13.1599 22.7734C13.9066 22.89 14.6066 22.9484 15.2599 22.9484C19.1099 22.9484 21.1749 20.8717 21.8866 16.4034L22.7383 10.9317C22.8549 10.255 22.9016 9.66003 22.9016 9.11169C24.6749 10.57 24.9316 12.6467 23.9166 15.715Z" fill="#8B5CF6"/>
</svg>
