<svg width="28" height="28" viewBox="0 0 28 28" fill="none" xmlns="http://www.w3.org/2000/svg">
<path d="M20.4517 9.06504C20.37 9.05337 20.2884 9.05337 20.2067 9.06504C18.3984 9.00671 16.9634 7.52504 16.9634 5.70504C16.9634 3.85004 18.4684 2.33337 20.335 2.33337C22.19 2.33337 23.7067 3.83837 23.7067 5.70504C23.695 7.52504 22.26 9.00671 20.4517 9.06504Z" fill="#8B5CF6"/>
<path d="M24.255 17.1501C22.9484 18.0251 21.1167 18.3518 19.425 18.1301C19.8684 17.1734 20.1017 16.1118 20.1134 14.9918C20.1134 13.8251 19.8567 12.7168 19.3667 11.7484C21.0934 11.5151 22.925 11.8418 24.2434 12.7168C26.0867 13.9301 26.0867 15.9251 24.255 17.1501Z" fill="#8B5CF6"/>
<path d="M7.51335 9.06504C7.59502 9.05337 7.67669 9.05337 7.75835 9.06504C9.56669 9.00671 11.0017 7.52504 11.0017 5.70504C11.0017 3.83837 9.49669 2.33337 7.63002 2.33337C5.77502 2.33337 4.27002 3.83837 4.27002 5.70504C4.27002 7.52504 5.70502 9.00671 7.51335 9.06504Z" fill="#8B5CF6"/>
<path d="M7.64168 14.9916C7.64168 16.1233 7.88668 17.1966 8.33002 18.165C6.68501 18.34 4.97001 17.99 3.71001 17.1616C1.86668 15.9366 1.86668 13.9416 3.71001 12.7166C4.95835 11.8766 6.72001 11.5383 8.37668 11.725C7.89835 12.705 7.64168 13.8133 7.64168 14.9916Z" fill="#8B5CF6"/>
<path d="M14.1401 18.515C14.0468 18.5033 13.9418 18.5033 13.8368 18.515C11.6901 18.445 9.9751 16.6833 9.9751 14.5133C9.98676 12.2967 11.7718 10.5 14.0001 10.5C16.2168 10.5 18.0134 12.2967 18.0134 14.5133C18.0018 16.6833 16.2984 18.445 14.1401 18.515Z" fill="#8B5CF6"/>
<path d="M10.3483 20.9301C8.58668 22.1084 8.58668 24.0451 10.3483 25.2117C12.355 26.5534 15.645 26.5534 17.6517 25.2117C19.4134 24.0334 19.4134 22.0967 17.6517 20.9301C15.6567 19.5884 12.3667 19.5884 10.3483 20.9301Z" fill="#8B5CF6"/>
</svg>
